<svg id="visual" viewBox="0 0 750 4675" width="750" height="4675" xmlns="http://www.w3.org/2000/svg" xmlns:xlink="http://www.w3.org/1999/xlink" version="1.1"><rect x="0" y="0" width="750" height="4675" fill="#f1f2f4"></rect><path d="M554 4675L553.5 4637.8C553 4600.7 552 4526.3 543.8 4452.2C535.7 4378 520.3 4304 511.3 4229.8C502.3 4155.7 499.7 4081.3 506.8 4007.2C514 3933 531 3859 530.5 3784.8C530 3710.7 512 3636.3 506.5 3562C501 3487.7 508 3413.3 513.5 3339.2C519 3265 523 3191 520.7 3116.8C518.3 3042.7 509.7 2968.3 513.2 2894C516.7 2819.7 532.3 2745.3 538 2671.2C543.7 2597 539.3 2523 536.8 2448.8C534.3 2374.7 533.7 2300.3 527 2226.2C520.3 2152 507.7 2078 505.2 2003.8C502.7 1929.7 510.3 1855.3 519 1781C527.7 1706.7 537.3 1632.3 533.7 1558.2C530 1484 513 1410 514 1335.8C515 1261.7 534 1187.3 534 1113C534 1038.7 515 964.3 508 890.2C501 816 506 742 511.3 667.8C516.7 593.7 522.3 519.3 519.3 445.2C516.3 371 504.7 297 501.5 222.8C498.3 148.7 503.7 74.3 506.3 37.2L509 0L750 0L750 37.2C750 74.3 750 148.7 750 222.8C750 297 750 371 750 445.2C750 519.3 750 593.7 750 667.8C750 742 750 816 750 890.2C750 964.3 750 1038.7 750 1113C750 1187.3 750 1261.7 750 1335.8C750 1410 750 1484 750 1558.2C750 1632.3 750 1706.7 750 1781C750 1855.3 750 1929.7 750 2003.8C750 2078 750 2152 750 2226.2C750 2300.3 750 2374.7 750 2448.8C750 2523 750 2597 750 2671.2C750 2745.3 750 2819.7 750 2894C750 2968.3 750 3042.7 750 3116.8C750 3191 750 3265 750 3339.2C750 3413.3 750 3487.7 750 3562C750 3636.3 750 3710.7 750 3784.8C750 3859 750 3933 750 4007.2C750 4081.3 750 4155.7 750 4229.8C750 4304 750 4378 750 4452.2C750 4526.3 750 4600.7 750 4637.8L750 4675Z" fill="#7fcfff"></path><path d="M551 4675L558.2 4637.8C565.3 4600.7 579.7 4526.3 586.7 4452.2C593.7 4378 593.3 4304 586.8 4229.8C580.3 4155.7 567.7 4081.3 566.8 4007.2C566 3933 577 3859 578.8 3784.8C580.7 3710.7 573.3 3636.3 571.7 3562C570 3487.7 574 3413.3 570.8 3339.2C567.7 3265 557.3 3191 555.2 3116.8C553 3042.7 559 2968.3 558.8 2894C558.7 2819.7 552.3 2745.3 548 2671.2C543.7 2597 541.3 2523 542.8 2448.8C544.3 2374.7 549.7 2300.3 551.7 2226.2C553.7 2152 552.3 2078 559 2003.8C565.7 1929.7 580.3 1855.3 585.7 1781C591 1706.7 587 1632.3 584.7 1558.2C582.3 1484 581.7 1410 581.8 1335.8C582 1261.7 583 1187.3 576.2 1113C569.3 1038.7 554.7 964.3 548.8 890.2C543 816 546 742 552.5 667.8C559 593.7 569 519.3 571.3 445.2C573.7 371 568.3 297 569.5 222.8C570.7 148.7 578.3 74.3 582.2 37.2L586 0L750 0L750 37.2C750 74.3 750 148.7 750 222.8C750 297 750 371 750 445.2C750 519.3 750 593.7 750 667.8C750 742 750 816 750 890.2C750 964.3 750 1038.7 750 1113C750 1187.3 750 1261.7 750 1335.8C750 1410 750 1484 750 1558.2C750 1632.3 750 1706.7 750 1781C750 1855.3 750 1929.7 750 2003.8C750 2078 750 2152 750 2226.2C750 2300.3 750 2374.7 750 2448.8C750 2523 750 2597 750 2671.2C750 2745.3 750 2819.7 750 2894C750 2968.3 750 3042.7 750 3116.8C750 3191 750 3265 750 3339.2C750 3413.3 750 3487.7 750 3562C750 3636.3 750 3710.7 750 3784.8C750 3859 750 3933 750 4007.2C750 4081.3 750 4155.7 750 4229.8C750 4304 750 4378 750 4452.2C750 4526.3 750 4600.7 750 4637.8L750 4675Z" fill="#9ab1fa"></path><path d="M644 4675L635.5 4637.8C627 4600.7 610 4526.3 608.5 4452.2C607 4378 621 4304 622 4229.8C623 4155.7 611 4081.3 606.7 4007.2C602.3 3933 605.7 3859 609.2 3784.8C612.7 3710.7 616.3 3636.3 622.5 3562C628.7 3487.7 637.3 3413.3 641.8 3339.2C646.3 3265 646.7 3191 644.5 3116.8C642.3 3042.7 637.7 2968.3 636.5 2894C635.3 2819.7 637.7 2745.3 639.8 2671.2C642 2597 644 2523 639.8 2448.8C635.7 2374.7 625.3 2300.3 619.2 2226.2C613 2152 611 2078 609.3 2003.8C607.7 1929.7 606.3 1855.3 610.2 1781C614 1706.7 623 1632.3 624.7 1558.2C626.3 1484 620.7 1410 620.5 1335.8C620.3 1261.7 625.7 1187.3 628.3 1113C631 1038.7 631 964.3 633 890.2C635 816 639 742 633.3 667.8C627.7 593.7 612.3 519.3 604.2 445.2C596 371 595 297 598 222.8C601 148.7 608 74.3 611.5 37.2L615 0L750 0L750 37.2C750 74.3 750 148.7 750 222.8C750 297 750 371 750 445.2C750 519.3 750 593.7 750 667.8C750 742 750 816 750 890.2C750 964.3 750 1038.7 750 1113C750 1187.3 750 1261.7 750 1335.8C750 1410 750 1484 750 1558.2C750 1632.3 750 1706.7 750 1781C750 1855.3 750 1929.7 750 2003.8C750 2078 750 2152 750 2226.2C750 2300.3 750 2374.7 750 2448.8C750 2523 750 2597 750 2671.2C750 2745.3 750 2819.7 750 2894C750 2968.3 750 3042.7 750 3116.8C750 3191 750 3265 750 3339.2C750 3413.3 750 3487.7 750 3562C750 3636.3 750 3710.7 750 3784.8C750 3859 750 3933 750 4007.2C750 4081.3 750 4155.7 750 4229.8C750 4304 750 4378 750 4452.2C750 4526.3 750 4600.7 750 4637.8L750 4675Z" fill="#c58cd8"></path><path d="M669 4675L663.2 4637.8C657.3 4600.7 645.7 4526.3 642.8 4452.2C640 4378 646 4304 649 4229.8C652 4155.7 652 4081.3 654.2 4007.2C656.3 3933 660.7 3859 662.8 3784.8C665 3710.7 665 3636.3 665 3562C665 3487.7 665 3413.3 668.2 3339.2C671.3 3265 677.7 3191 676.7 3116.8C675.7 3042.7 667.3 2968.3 663.5 2894C659.7 2819.7 660.3 2745.3 662.2 2671.2C664 2597 667 2523 671 2448.8C675 2374.7 680 2300.3 679.5 2226.2C679 2152 673 2078 672.5 2003.8C672 1929.7 677 1855.3 671.2 1781C665.3 1706.7 648.7 1632.3 641.8 1558.2C635 1484 638 1410 639.2 1335.8C640.3 1261.7 639.7 1187.3 643.2 1113C646.7 1038.7 654.3 964.3 655.7 890.2C657 816 652 742 650 667.8C648 593.7 649 519.3 646.3 445.2C643.7 371 637.3 297 642.5 222.8C647.7 148.7 664.3 74.3 672.7 37.2L681 0L750 0L750 37.2C750 74.3 750 148.7 750 222.8C750 297 750 371 750 445.2C750 519.3 750 593.7 750 667.8C750 742 750 816 750 890.2C750 964.3 750 1038.7 750 1113C750 1187.3 750 1261.7 750 1335.8C750 1410 750 1484 750 1558.2C750 1632.3 750 1706.7 750 1781C750 1855.3 750 1929.7 750 2003.8C750 2078 750 2152 750 2226.2C750 2300.3 750 2374.7 750 2448.8C750 2523 750 2597 750 2671.2C750 2745.3 750 2819.7 750 2894C750 2968.3 750 3042.7 750 3116.8C750 3191 750 3265 750 3339.2C750 3413.3 750 3487.7 750 3562C750 3636.3 750 3710.7 750 3784.8C750 3859 750 3933 750 4007.2C750 4081.3 750 4155.7 750 4229.8C750 4304 750 4378 750 4452.2C750 4526.3 750 4600.7 750 4637.8L750 4675Z" fill="#de669b"></path><path d="M688 4675L686.8 4637.8C685.7 4600.7 683.3 4526.3 686.8 4452.2C690.3 4378 699.7 4304 705.3 4229.8C711 4155.7 713 4081.3 713.3 4007.2C713.7 3933 712.3 3859 711.5 3784.8C710.7 3710.7 710.3 3636.3 706.2 3562C702 3487.7 694 3413.3 695.3 3339.2C696.7 3265 707.3 3191 710.7 3116.8C714 3042.7 710 2968.3 709.5 2894C709 2819.7 712 2745.3 712.7 2671.2C713.3 2597 711.7 2523 707 2448.8C702.3 2374.7 694.7 2300.3 692.7 2226.2C690.7 2152 694.3 2078 694.5 2003.8C694.7 1929.7 691.3 1855.3 693.2 1781C695 1706.7 702 1632.3 702.3 1558.2C702.7 1484 696.3 1410 699.2 1335.8C702 1261.7 714 1187.3 713.8 1113C713.7 1038.7 701.3 964.3 700.2 890.2C699 816 709 742 713.5 667.8C718 593.7 717 519.3 716.7 445.2C716.3 371 716.7 297 710.2 222.8C703.7 148.7 690.3 74.3 683.7 37.2L677 0L750 0L750 37.2C750 74.3 750 148.7 750 222.8C750 297 750 371 750 445.2C750 519.3 750 593.7 750 667.8C750 742 750 816 750 890.2C750 964.3 750 1038.7 750 1113C750 1187.3 750 1261.7 750 1335.8C750 1410 750 1484 750 1558.2C750 1632.3 750 1706.7 750 1781C750 1855.3 750 1929.7 750 2003.8C750 2078 750 2152 750 2226.2C750 2300.3 750 2374.7 750 2448.8C750 2523 750 2597 750 2671.2C750 2745.3 750 2819.7 750 2894C750 2968.3 750 3042.7 750 3116.8C750 3191 750 3265 750 3339.2C750 3413.3 750 3487.7 750 3562C750 3636.3 750 3710.7 750 3784.8C750 3859 750 3933 750 4007.2C750 4081.3 750 4155.7 750 4229.8C750 4304 750 4378 750 4452.2C750 4526.3 750 4600.7 750 4637.8L750 4675Z" fill="#d65050"></path></svg>